<svg id="visual" viewBox="0 0 900 600" width="900" height="600" xmlns="http://www.w3.org/2000/svg" xmlns:xlink="http://www.w3.org/1999/xlink" version="1.1"><rect x="0" y="0" width="900" height="600" fill="#e0e9e0"></rect><path d="M0 350L21.5 355.5C43 361 86 372 128.8 386.5C171.7 401 214.3 419 257.2 422C300 425 343 413 385.8 414.8C428.7 416.7 471.3 432.3 514.2 438.3C557 444.3 600 440.7 642.8 432.3C685.7 424 728.3 411 771.2 409C814 407 857 416 878.5 420.5L900 425L900 601L878.5 601C857 601 814 601 771.2 601C728.3 601 685.7 601 642.8 601C600 601 557 601 514.2 601C471.3 601 428.7 601 385.8 601C343 601 300 601 257.2 601C214.3 601 171.7 601 128.8 601C86 601 43 601 21.5 601L0 601Z" fill="#ff6884"></path><path d="M0 404L21.5 409.5C43 415 86 426 128.8 437.8C171.7 449.7 214.3 462.3 257.2 456.8C300 451.3 343 427.7 385.8 423.3C428.7 419 471.3 434 514.2 439.8C557 445.7 600 442.3 642.8 442.8C685.7 443.3 728.3 447.7 771.2 449.5C814 451.3 857 450.7 878.5 450.3L900 450L900 601L878.5 601C857 601 814 601 771.2 601C728.3 601 685.7 601 642.8 601C600 601 557 601 514.2 601C471.3 601 428.7 601 385.8 601C343 601 300 601 257.2 601C214.3 601 171.7 601 128.8 601C86 601 43 601 21.5 601L0 601Z" fill="#ce5c8d"></path><path d="M0 479L21.5 475C43 471 86 463 128.8 461.7C171.7 460.3 214.3 465.7 257.2 474.7C300 483.7 343 496.3 385.8 492.3C428.7 488.3 471.3 467.7 514.2 457.2C557 446.7 600 446.3 642.8 455.2C685.7 464 728.3 482 771.2 482.8C814 483.7 857 467.3 878.5 459.2L900 451L900 601L878.5 601C857 601 814 601 771.2 601C728.3 601 685.7 601 642.8 601C600 601 557 601 514.2 601C471.3 601 428.7 601 385.8 601C343 601 300 601 257.2 601C214.3 601 171.7 601 128.8 601C86 601 43 601 21.5 601L0 601Z" fill="#985588"></path><path d="M0 517L21.5 513.3C43 509.7 86 502.3 128.8 498C171.7 493.7 214.3 492.3 257.2 500C300 507.7 343 524.3 385.8 525.7C428.7 527 471.3 513 514.2 506.7C557 500.3 600 501.7 642.8 508C685.7 514.3 728.3 525.7 771.2 528.2C814 530.7 857 524.3 878.5 521.2L900 518L900 601L878.5 601C857 601 814 601 771.2 601C728.3 601 685.7 601 642.8 601C600 601 557 601 514.2 601C471.3 601 428.7 601 385.8 601C343 601 300 601 257.2 601C214.3 601 171.7 601 128.8 601C86 601 43 601 21.5 601L0 601Z" fill="#664b74"></path><path d="M0 549L21.5 545C43 541 86 533 128.8 535.8C171.7 538.7 214.3 552.3 257.2 559C300 565.7 343 565.3 385.8 560.5C428.7 555.7 471.3 546.3 514.2 545.7C557 545 600 553 642.8 553C685.7 553 728.3 545 771.2 544C814 543 857 549 878.5 552L900 555L900 601L878.5 601C857 601 814 601 771.2 601C728.3 601 685.7 601 642.8 601C600 601 557 601 514.2 601C471.3 601 428.7 601 385.8 601C343 601 300 601 257.2 601C214.3 601 171.7 601 128.8 601C86 601 43 601 21.5 601L0 601Z" fill="#3f3d56"></path></svg>